<svg id="nav-button" xmlns="http://www.w3.org/2000/svg" width="31.533" height="25.322" viewBox="0 0 31.533 25.322">
  <path id="Path_1" data-name="Path 1" d="M0,0H31.533V25.322H0Z" fill="#aaa" opacity="0"/>
  <path id="Path_4" data-name="Path 4" d="M1.288,0H20.612A1.257,1.257,0,0,1,21.9,1.223a1.257,1.257,0,0,1-1.288,1.223H1.288A1.257,1.257,0,0,1,0,1.223,1.257,1.257,0,0,1,1.288,0Z" transform="translate(5.205 4.099)" fill="#aaa"/>
  <path id="Path_2" data-name="Path 2" d="M1.288,0H20.612A1.257,1.257,0,0,1,21.9,1.223a1.257,1.257,0,0,1-1.288,1.223H1.288A1.257,1.257,0,0,1,0,1.223,1.257,1.257,0,0,1,1.288,0Z" transform="translate(5.205 11.438)" fill="#aaa"/>
  <path id="Path_3" data-name="Path 3" d="M1.288,0H20.612A1.257,1.257,0,0,1,21.9,1.223a1.257,1.257,0,0,1-1.288,1.223H1.288A1.257,1.257,0,0,1,0,1.223,1.257,1.257,0,0,1,1.288,0Z" transform="translate(5.205 18.776)" fill="#aaa"/>
</svg>
